<?xml version="1.0" standalone="no"?>
<!DOCTYPE svg PUBLIC "-//W3C//DTD SVG 20010904//EN"
 "http://www.w3.org/TR/2001/REC-SVG-20010904/DTD/svg10.dtd">
<svg version="1.0" xmlns="http://www.w3.org/2000/svg"
 width="558.000000pt" height="558.000000pt" viewBox="0 0 558.000000 558.000000"
 preserveAspectRatio="xMidYMid meet">

<g transform="translate(0.000000,558.000000) scale(0.100000,-0.100000)"
fill="#000000" stroke="none">
<path d="M0 3666 l0 -1914 57 -11 c64 -12 129 -23 278 -47 439 -70 539 -86
660 -109 44 -8 139 -24 210 -35 250 -39 371 -59 520 -85 83 -15 183 -32 223
-38 70 -11 98 -27 46 -27 -14 0 -159 22 -322 50 -164 27 -385 63 -492 80 -107
18 -287 48 -400 67 -384 65 -740 122 -767 123 -10 0 -13 -136 -13 -648 l0
-648 30 -22 c16 -12 32 -22 36 -22 4 0 40 -16 81 -35 41 -19 82 -35 92 -35 10
0 31 -4 47 -9 16 -5 63 -19 104 -31 243 -73 313 -106 200 -96 -74 7 -360 90
-375 110 -11 14 -129 56 -157 56 -11 0 -18 7 -18 20 0 11 -2 20 -4 20 -2 0
-11 3 -20 6 -14 5 -16 -15 -16 -190 l0 -196 2790 0 2790 0 0 2790 0 2790
-2790 0 -2790 0 0 -1914z m2325 705 c136 -28 143 -30 260 -101 114 -69 242
-136 365 -189 30 -13 85 -39 123 -56 l67 -33 -35 -6 c-19 -4 -35 -12 -35 -18
0 -15 232 -5 530 21 230 21 430 30 430 21 0 -3 -35 -11 -77 -18 -97 -16 -269
-64 -285 -80 -7 -7 -9 -12 -5 -12 3 0 68 -14 144 -30 142 -31 296 -77 348
-104 38 -20 26 -20 -70 0 -42 9 -79 13 -82 11 -8 -9 7 -27 23 -27 23 0 152
-68 213 -112 31 -23 82 -66 115 -97 64 -62 200 -220 194 -226 -2 -2 -42 11
-90 30 -97 39 -246 80 -256 71 -3 -4 5 -14 19 -23 51 -36 113 -100 170 -176
80 -106 116 -179 213 -429 30 -76 79 -271 74 -294 -2 -10 -16 3 -38 35 -151
216 -252 326 -332 360 -48 21 -118 34 -118 22 0 -4 28 -19 63 -33 73 -30 123
-87 153 -174 17 -52 17 -54 -2 -75 -26 -30 -75 -49 -126 -49 -34 0 -56 9 -102
40 -33 23 -69 40 -80 38 -13 -2 -41 -32 -73 -78 -64 -93 -225 -260 -278 -289
-22 -12 -47 -26 -55 -31 -21 -13 -102 -50 -111 -50 -12 0 -239 235 -230 238 5
2 26 -4 47 -13 20 -8 39 -13 41 -11 19 18 -58 217 -103 267 -9 10 -15 22 -11
25 8 8 130 -55 169 -88 18 -15 37 -28 41 -28 30 0 -75 188 -149 267 -17 18
-29 34 -28 36 8 7 138 -13 235 -37 57 -14 104 -24 106 -22 4 4 -48 98 -64 114
-7 7 -13 17 -13 21 0 13 -83 97 -135 136 l-50 38 70 -7 c77 -7 173 -27 279
-57 152 -44 84 15 -240 208 -64 38 -161 71 -236 79 -32 4 -58 10 -58 13 0 10
154 58 225 70 83 15 87 27 13 41 -73 14 -315 24 -337 13 -20 -8 -221 -30 -220
-23 0 5 86 68 184 134 55 38 77 57 72 63 -7 6 -151 -20 -174 -32 -16 -8 -34
-15 -40 -15 -20 0 -213 -67 -259 -89 -22 -11 -54 -23 -70 -27 -16 -4 -31 -10
-34 -14 -3 -4 -28 -19 -56 -34 -69 -37 -128 -86 -116 -98 4 -4 36 -9 70 -9 34
-1 62 -4 62 -8 0 -4 -24 -15 -52 -26 -29 -10 -55 -21 -58 -25 -3 -3 -26 -21
-52 -39 -27 -17 -48 -34 -48 -36 0 -2 46 21 103 50 56 29 129 61 162 71 33 10
64 21 69 26 6 4 -44 8 -110 8 l-119 1 30 24 c40 33 194 109 280 139 39 13 115
39 170 59 100 35 199 56 180 39 -5 -5 -51 -36 -100 -70 -50 -33 -104 -75 -120
-93 l-30 -32 45 7 c25 4 68 11 95 16 71 12 405 12 405 0 0 -5 -25 -17 -56 -26
-76 -22 -164 -62 -164 -74 0 -11 14 -15 125 -34 44 -7 107 -27 140 -43 90 -44
324 -174 330 -184 3 -4 -18 -1 -46 7 -128 38 -399 69 -399 46 0 -5 16 -16 37
-26 59 -28 152 -106 214 -180 32 -38 56 -72 54 -76 -2 -3 -46 4 -97 17 -84 22
-308 44 -308 31 0 -3 19 -18 42 -33 91 -61 182 -166 203 -234 l7 -25 -33 23
c-78 51 -215 109 -227 96 -2 -2 8 -16 23 -32 37 -39 91 -122 126 -196 40 -85
39 -91 -13 -70 -24 9 -47 19 -53 23 -5 4 -23 10 -39 14 -26 6 -61 25 -201 108
-16 10 -45 26 -63 35 -32 17 -33 19 -27 65 l7 48 -76 -6 c-92 -8 -120 2 -171
63 -40 48 -86 73 -134 73 -23 0 -41 12 -77 50 -70 74 -129 110 -180 110 -34 0
-53 -8 -103 -45 -57 -42 -66 -54 -111 -150 -28 -58 -72 -151 -99 -207 -26 -57
-67 -126 -90 -155 -22 -29 -41 -54 -41 -56 0 -2 11 -2 24 0 18 4 26 0 31 -16
9 -30 -4 -87 -26 -107 -18 -16 -19 -16 -25 2 -3 11 -10 31 -16 46 -5 15 -7 33
-3 40 3 7 -8 -5 -26 -27 -62 -77 -275 -275 -319 -298 -39 -19 -60 -22 -160
-22 -120 1 -111 -1 -247 62 -49 23 -97 71 -132 134 -36 65 -38 85 -11 119 11
14 20 31 20 38 0 16 52 98 124 195 55 75 109 120 211 178 31 17 54 33 53 35
-5 4 -83 -34 -118 -57 -39 -26 -70 -33 -70 -15 0 8 13 17 29 21 39 8 107 60
262 200 155 139 194 194 203 283 9 98 43 151 181 287 126 125 152 142 313 209
68 28 84 32 89 20 20 -52 40 49 25 123 -6 27 -28 78 -48 114 -41 73 -83 147
-95 169 -5 8 -13 33 -18 55 -8 28 -27 56 -66 95 -31 29 -61 63 -67 74 -10 18
-8 19 68 13 44 -4 142 -20 219 -36z m-420 -482 c66 -11 149 -25 185 -30 80
-12 93 -16 137 -41 l34 -21 -88 -36 c-98 -41 -131 -63 -244 -163 -42 -37 -79
-68 -82 -68 -2 0 -8 20 -11 44 -11 74 -111 201 -219 281 -58 43 -58 44 -30 48
73 11 209 5 318 -14z m-1681 -769 c66 -11 211 -33 321 -50 110 -17 241 -37
290 -45 197 -33 464 -75 517 -81 63 -7 84 -17 74 -33 -10 -16 -39 -14 -209 14
-181 30 -468 75 -662 105 -77 12 -219 35 -317 51 -97 16 -181 29 -186 29 -6 0
-13 -10 -15 -22 -3 -18 -5 -16 -6 8 0 17 2 34 6 37 11 11 59 8 187 -13z m2139
-187 c14 -14 17 -35 17 -138 0 -107 -3 -126 -19 -146 l-20 -24 -30 70 c-17 39
-42 91 -56 118 -14 26 -25 60 -25 75 0 62 82 90 133 45z m224 -114 c31 14 42
6 21 -15 -13 -13 -24 -13 -81 -4 -37 7 -69 15 -72 19 -2 5 21 4 51 -2 40 -7
63 -6 81 2z m-407 -160 c0 -109 0 -110 -22 -107 -26 3 -68 77 -68 118 0 40 46
100 77 100 10 0 13 -26 13 -111z m413 82 c5 -5 5 -29 2 -55 -7 -47 -22 -57
-55 -36 -12 8 -11 10 7 10 16 0 25 8 29 26 8 32 -5 46 -59 61 l-42 13 55 -6
c30 -3 59 -9 63 -13z m-290 -81 c33 -92 28 -110 -29 -110 -18 0 -36 -5 -39
-10 -4 -6 -10 -8 -14 -6 -14 9 32 206 47 206 4 0 20 -36 35 -80z m677 67 c0
-19 -57 -29 -119 -20 -101 13 -87 30 24 29 52 -1 95 -4 95 -9z m-1990 -1 c0
-2 -43 -26 -96 -53 -53 -26 -100 -55 -105 -64 -6 -12 -2 -25 12 -44 l21 -26
-20 -6 c-18 -4 -19 -9 -11 -32 8 -25 7 -24 -20 7 -29 34 -43 75 -34 98 8 22
97 73 169 98 72 26 84 29 84 22z m1844 -83 c6 -14 4 -14 -11 -2 -15 13 -16 12
-11 -9 7 -24 -14 -52 -38 -52 -11 0 -13 6 -9 23 18 60 54 80 69 40z m-1774 -9
c0 -8 -133 -154 -138 -150 -1 2 6 19 17 37 12 19 21 41 21 49 0 9 19 28 42 43
41 26 58 33 58 21z m1928 -9 c20 -6 21 -8 8 -18 -19 -14 -9 -34 19 -39 14 -2
19 2 17 15 -2 9 1 17 7 17 10 0 8 -40 -3 -58 -4 -7 -16 -12 -27 -12 -10 0 -19
-5 -19 -11 0 -6 15 -10 33 -9 58 3 81 0 72 -9 -6 -5 -19 -11 -30 -14 -16 -5
-15 -6 5 -5 14 1 33 -2 43 -7 9 -4 24 -5 32 -1 8 3 22 3 30 0 17 -7 21 -34 5
-34 -15 0 -12 -19 4 -36 16 -16 76 -19 76 -4 0 6 -9 10 -20 10 -17 0 -20 5
-16 28 2 15 5 31 5 35 1 4 10 3 22 -4 14 -7 19 -17 16 -30 -5 -19 8 -28 15 -9
2 6 8 6 18 0 13 -9 13 -11 0 -19 -8 -6 -11 -14 -6 -18 5 -4 11 -2 13 5 6 16
30 15 36 -2 4 -9 -4 -16 -24 -20 -35 -7 -41 -45 -9 -53 27 -7 25 -23 -2 -23
-16 0 -19 -3 -11 -11 15 -15 49 -6 45 12 -1 9 9 22 23 29 31 16 42 8 19 -14
-9 -9 -14 -20 -10 -23 3 -4 12 2 19 12 11 14 18 16 33 7 18 -11 18 -11 1 -12
-10 0 -15 -5 -12 -10 3 -6 -1 -13 -9 -16 -20 -8 -20 -24 0 -38 14 -10 12 -14
-10 -26 -22 -11 -28 -11 -44 3 -10 9 -42 19 -72 23 -46 5 -58 3 -75 -13 -11
-11 -27 -22 -35 -26 -8 -4 -26 -15 -40 -24 -13 -10 -21 -13 -17 -6 5 7 -3 14
-23 18 -35 8 -50 0 -50 -24 0 -17 -25 -31 -57 -31 -20 0 -15 31 6 37 14 4 20
18 25 64 l7 59 34 0 35 0 0 50 0 50 -41 0 c-28 0 -46 -6 -55 -17 -13 -17 -14
-16 -20 5 -6 20 -11 22 -41 16 -33 -6 -35 -5 -28 15 3 12 4 35 0 51 -5 22 -13
30 -33 32 -23 3 -27 8 -28 38 -1 19 5 43 13 52 8 9 12 22 8 27 -4 7 5 11 24
11 16 0 33 5 36 10 4 6 14 9 23 6 10 -2 27 -7 40 -11z m-607 -43 c-7 -15 -25
-36 -40 -45 -32 -19 -81 -23 -81 -7 0 6 12 10 26 10 36 0 61 16 80 51 19 38
31 31 15 -9z m-285 -17 c21 -14 30 -25 21 -25 -15 0 -79 49 -65 50 4 0 24 -11
44 -25z m518 -18 c-29 -93 -45 -101 -177 -94 -75 3 -123 12 -182 33 -83 28
-133 54 -104 54 8 0 19 -4 25 -9 25 -23 274 -71 274 -52 0 5 -5 11 -11 13 -24
8 37 35 69 30 38 -5 41 -15 10 -30 -23 -11 -23 -11 4 -11 38 -1 58 23 58 70 0
37 1 39 20 29 16 -8 19 -17 14 -33z m213 11 c-3 -8 -6 -5 -6 6 -1 11 2 17 5
13 3 -3 4 -12 1 -19z m313 -3 c0 -2 -6 -5 -13 -8 -8 -3 -14 1 -14 8 0 7 6 11
14 8 7 -3 13 -6 13 -8z m-1048 -84 c48 -75 35 -121 -34 -121 l-38 0 0 102 0
101 22 -19 c11 -10 34 -39 50 -63z m641 60 c-13 -11 -23 -29 -23 -40 0 -21
-10 -27 -23 -15 -8 9 19 61 35 67 27 11 32 6 11 -12z m420 -11 c3 -11 1 -20
-4 -20 -5 0 -9 9 -9 20 0 11 2 20 4 20 2 0 6 -9 9 -20z m47 -10 c8 -5 11 -10
5 -10 -5 0 -17 5 -25 10 -8 5 -10 10 -5 10 6 0 17 -5 25 -10z m-494 -107 c-7
-7 -26 7 -26 19 0 6 6 6 15 -2 9 -7 13 -15 11 -17z m119 -13 c3 -5 1 -10 -4
-10 -6 0 -11 5 -11 10 0 6 2 10 4 10 3 0 8 -4 11 -10z m-62 -20 c20 -8 37 -18
37 -23 0 -4 -4 -5 -10 -2 -16 10 -11 -11 5 -25 13 -11 13 -15 3 -21 -19 -13
-28 -11 -28 6 0 8 -15 31 -32 51 -18 21 -28 35 -23 33 6 -2 27 -11 48 -19z
m-574 -31 c52 -18 35 -29 -46 -30 -55 -1 -70 -3 -53 -9 36 -12 134 -12 165 0
15 6 33 6 42 1 13 -7 12 -11 -8 -25 -13 -9 -28 -16 -33 -16 -17 0 -143 -68
-228 -124 -120 -78 -221 -110 -336 -104 -48 2 -93 7 -100 12 -9 5 12 26 67 67
43 32 109 93 147 134 65 72 94 91 94 61 0 -7 6 -19 14 -25 10 -8 19 -6 39 9
14 11 52 25 84 31 32 6 62 15 68 20 12 12 45 11 84 -2z m801 -18 c0 -20 -25
-51 -41 -51 -5 0 -9 7 -9 15 0 8 7 15 15 15 8 0 15 9 15 20 0 11 5 20 10 20 6
0 10 -9 10 -19z m-2000 -52 c43 -83 103 -141 197 -186 52 -25 72 -38 59 -41
-45 -10 -134 32 -214 100 -62 53 -111 156 -85 181 10 11 11 10 43 -54z m3375
31 c21 -16 49 -30 63 -30 23 0 24 -2 17 -47 -10 -74 -63 -220 -109 -303 -22
-41 -48 -88 -56 -104 -22 -43 -105 -127 -180 -180 -35 -25 -67 -46 -71 -46 -4
0 -36 -18 -70 -40 -84 -52 -120 -72 -124 -68 -2 2 21 30 51 63 104 114 198
271 214 358 10 52 -4 55 -42 10 -70 -84 -169 -167 -283 -240 -66 -42 -163
-105 -217 -140 -119 -78 -207 -120 -373 -178 -188 -66 -284 -93 -383 -110
-105 -17 -277 -35 -341 -35 l-46 1 76 33 c146 64 351 194 436 277 47 46 82
103 71 114 -2 2 -36 -7 -74 -20 -39 -13 -97 -27 -130 -31 -54 -6 -57 -5 -39 9
43 31 122 66 166 72 35 5 63 1 120 -18 90 -31 277 -49 362 -36 122 19 237 105
254 189 7 37 13 44 49 59 138 55 399 249 522 388 41 46 79 83 86 83 7 0 30
-13 51 -30z m-1474 6 c5 3 9 -2 9 -10 0 -18 -51 -17 -57 1 -5 13 30 23 35 11
2 -5 8 -6 13 -2z m-71 -20 c0 -2 -7 -9 -15 -16 -12 -10 -15 -10 -15 4 0 9 7
16 15 16 8 0 15 -2 15 -4z m711 -76 c5 0 9 -4 9 -8 0 -5 -16 -8 -36 -8 -35 1
-36 3 -40 39 l-3 38 30 -31 c17 -16 35 -30 40 -30z m-700 11 c16 -15 17 -20 6
-24 -9 -3 -19 4 -26 19 -13 29 -7 30 20 5z m76 -33 c-3 -8 -6 -5 -6 6 -1 11 2
17 5 13 3 -3 4 -12 1 -19z m-126 -78 c-10 -56 -17 -69 -37 -78 -29 -14 -30 -6
-4 33 11 16 25 55 31 85 16 76 24 42 10 -40z m657 73 c-16 -2 -40 -2 -55 0
-16 2 -3 4 27 4 30 0 43 -2 28 -4z m-150 -10 c-10 -2 -26 -2 -35 0 -10 3 -2 5
17 5 19 0 27 -2 18 -5z m-368 -63 c0 -5 -7 -10 -16 -10 -8 0 -12 5 -9 10 3 6
10 10 16 10 5 0 9 -4 9 -10z m706 -305 c3 -8 -1 -24 -9 -36 -15 -21 -16 -21
-14 15 2 37 13 47 23 21z m-148 -42 c-10 -2 -26 -2 -35 0 -10 3 -2 5 17 5 19
0 27 -2 18 -5z m73 -20 c-12 -20 -14 -14 -5 12 4 9 9 14 11 11 3 -2 0 -13 -6
-23z m-163 -17 c3 -21 -2 -29 -16 -33 -11 -3 -22 -13 -25 -24 -7 -25 -87 -28
-87 -3 0 18 23 44 39 44 6 0 11 7 11 15 0 9 9 15 25 15 14 0 25 5 25 11 0 23
25 1 28 -25z m122 20 c0 -11 -19 -15 -25 -6 -3 5 1 10 9 10 9 0 16 -2 16 -4z
m-305 -43 c-2 -10 -4 -22 -4 -26 -1 -5 -27 -6 -58 -3 -32 3 -64 5 -72 6 -11 0
-9 4 5 15 26 20 71 19 83 -2 8 -15 12 -16 22 -5 10 9 10 12 1 12 -7 0 -12 5
-12 10 0 6 9 10 19 10 13 0 18 -6 16 -17z m216 -30 c0 -11 3 -13 6 -5 7 17 23
15 23 -3 0 -22 -37 -18 -43 5 -3 11 -1 20 4 20 5 0 9 -8 10 -17z m-274 -443
c138 -22 262 -48 232 -49 -70 -4 -425 59 -406 71 7 4 17 6 24 3 6 -2 74 -14
150 -25z m296 -57 c-7 -2 -21 -2 -30 0 -10 3 -4 5 12 5 17 0 24 -2 18 -5z
m181 -22 c17 -6 48 -13 70 -16 21 -4 36 -8 34 -11 -7 -6 -230 26 -253 37 -26
13 105 3 149 -10z m376 -65 c47 -9 103 -21 125 -26 l40 -9 -45 3 c-25 3 -88
11 -140 20 -52 8 -128 20 -168 27 -39 6 -70 14 -67 18 5 9 122 -7 255 -33z
m217 -42 c-3 -3 -12 -4 -19 -1 -8 3 -5 6 6 6 11 1 17 -2 13 -5z"/>
<path d="M2240 4230 c0 -6 31 -55 70 -108 38 -53 77 -113 87 -132 10 -19 23
-38 28 -42 6 -4 12 -46 14 -93 l3 -87 25 7 c14 3 40 13 57 21 17 8 23 12 14
10 -9 -3 -33 -8 -52 -11 l-36 -7 2 64 c2 55 -3 75 -30 130 -17 36 -55 96 -83
134 -27 38 -46 70 -40 72 22 7 341 -186 341 -207 0 -4 -9 -16 -20 -26 -28 -26
-25 -52 8 -63 l27 -9 -47 -33 c-26 -19 -46 -35 -44 -37 5 -5 102 43 139 69 36
26 26 38 -29 38 l-46 0 26 30 c30 36 27 49 -17 75 -18 10 -34 21 -37 24 -3 3
-50 36 -105 72 -118 77 -255 136 -255 109z"/>
<path d="M2030 3308 c-43 -27 -57 -42 -95 -92 -98 -133 -116 -176 -72 -176 12
0 65 7 117 16 95 16 126 21 145 23 6 1 41 31 80 66 38 36 73 65 76 65 13 0
102 110 95 117 -4 4 -15 2 -24 -4 -35 -21 -80 -24 -140 -9 -84 22 -140 20
-182 -6z m131 -18 c10 -6 19 -17 19 -24 0 -21 -31 -28 -50 -11 -22 20 -36 20
-20 0 16 -19 5 -32 -13 -17 -15 13 -37 -2 -37 -25 0 -18 -19 -16 -26 2 -7 18
12 44 41 55 19 8 19 9 -3 9 -13 1 -20 5 -17 11 8 13 81 13 106 0z m177 1 c-1
-5 -36 -36 -77 -70 -40 -34 -82 -72 -92 -85 -24 -31 -54 -41 -184 -66 -130
-24 -125 -23 -125 -7 0 14 94 67 118 67 8 0 59 25 114 56 55 30 132 68 172 84
83 34 79 33 74 21z m-313 -72 c0 -38 -4 -53 -18 -60 -43 -25 -52 40 -10 83 15
15 27 28 27 28 1 0 1 -23 1 -51z"/>
<path d="M1830 3276 c0 -12 -23 -76 -54 -151 -17 -38 -10 -55 20 -55 20 0 24
5 24 28 0 15 7 59 15 97 17 83 18 95 5 95 -5 0 -10 -6 -10 -14z"/>
<path d="M2329 3213 c-13 -16 -12 -17 4 -4 16 13 21 21 13 21 -2 0 -10 -8 -17
-17z"/>
<path d="M2256 3154 c-27 -25 -46 -47 -44 -49 2 -3 26 18 53 45 62 63 56 65
-9 4z"/>
<path d="M2556 3161 c21 -15 48 -38 59 -51 19 -22 18 -22 -26 3 -42 25 -55 27
-150 27 l-105 0 -44 -45 c-24 -25 -39 -45 -33 -45 6 0 16 7 24 16 29 36 72 48
165 47 108 -1 143 -14 203 -74 l44 -44 -8 35 c-10 51 -52 108 -100 136 -57 33
-77 30 -29 -5z"/>
<path d="M2178 3070 c-10 -9 -18 -22 -18 -28 0 -6 -12 -20 -27 -31 -25 -20
-37 -21 -198 -19 -197 3 -225 -4 -225 -56 -1 -17 -7 -44 -14 -61 -14 -32 -18
-28 -30 28 -11 48 -60 49 -110 2 -33 -31 -17 -32 35 -3 48 27 61 18 69 -50 l5
-47 25 34 c13 19 29 55 36 80 10 41 15 48 50 59 28 10 62 11 119 6 98 -9 193
-9 221 0 11 3 36 27 53 52 35 47 38 63 9 34z"/>
<path d="M1480 2855 c-14 -8 -20 -14 -15 -14 6 0 21 6 35 14 14 8 21 14 15 14
-5 0 -21 -6 -35 -14z"/>
<path d="M2933 2598 c2 -7 10 -13 17 -13 7 0 15 6 18 13 2 7 -5 12 -18 12 -13
0 -20 -5 -17 -12z"/>
<path d="M3237 2439 c4 -13 9 -17 15 -11 11 11 3 32 -12 32 -4 0 -6 -9 -3 -21z"/>
<path d="M3342 1713 c-6 -2 -10 -9 -7 -13 7 -11 35 -2 35 11 0 10 -8 10 -28 2z"/>
</g>
</svg>
